<?xml version="1.0" encoding="UTF-8" standalone="no"?>
<!-- Created with Inkscape (http://www.inkscape.org/) -->

<svg
   version="1.1"
   id="svg9"
   width="1883.52"
   height="1692.4"
   viewBox="0 0 1883.52 1692.4"
   sodipodi:docname="DER_VocesInclusivas_Iconos.ai"
   xmlns:inkscape="http://www.inkscape.org/namespaces/inkscape"
   xmlns:sodipodi="http://sodipodi.sourceforge.net/DTD/sodipodi-0.dtd"
   xmlns="http://www.w3.org/2000/svg"
   xmlns:svg="http://www.w3.org/2000/svg">
  <defs
     id="defs13">
    <clipPath
       clipPathUnits="userSpaceOnUse"
       id="clipPath105">
      <path
         d="M 0,1269.298 H 1412.643 V 0 H 0 Z"
         id="path103" />
    </clipPath>
  </defs>
  <sodipodi:namedview
     id="namedview11"
     pagecolor="#ffffff"
     bordercolor="#000000"
     borderopacity="0.25"
     inkscape:showpageshadow="2"
     inkscape:pageopacity="0.0"
     inkscape:pagecheckerboard="0"
     inkscape:deskcolor="#d1d1d1"
     showgrid="false"
     inkscape:zoom="0.13008679"
     inkscape:cx="-964.7405"
     inkscape:cy="907.08669"
     inkscape:window-width="2560"
     inkscape:window-height="1011"
     inkscape:window-x="0"
     inkscape:window-y="0"
     inkscape:window-maximized="1"
     inkscape:current-layer="g17" />
  <g
     id="g97"
     inkscape:groupmode="layer"
     inkscape:label="Page 3"
     transform="matrix(1.3333333,0,0,-1.3333333,-1.6555241e-4,1692.4)">
    <g
       id="g99">
      <g
         id="g101"
         clip-path="url(#clipPath105)">
        <g
           id="g107"
           transform="translate(811.4971,595.7942)">
          <path
             d="M 0,0 C 0.671,3.998 -0.59,7.454 -5.273,7.061 Z M 28.287,0.009 23.888,10.567 21.237,7.115 c 6.141,0.529 3.416,-6.019 7.05,-7.106 m 54.409,75.484 c -2.662,1.832 -16.43,-1.504 -12.356,-5.272 0.684,-0.633 11.953,2.762 12.356,5.272 M -134.358,38.885 c -7.696,1.224 -10.052,-1.266 -4.409,-7.021 z m 57.47,24.722 -2.641,-4.349 2.641,-2.642 2.642,4.349 z m -223.837,-0.141 -5.109,-6.88 10.589,0.01 z m 282.59,5.19 c -4.187,4.556 -6.068,11.564 -11.881,12.671 l 2.229,-14.798 17.212,-4.667 c 1.834,7.134 -4.831,3.824 -7.56,6.794 M 54.03,146.82 c 4.903,4.843 -9.407,19.358 -14.413,14.413 -4.902,-4.842 9.407,-19.358 14.413,-14.413 M -97.231,88.39 c -8.717,0.762 -3.51,-12.735 -0.844,-7.092 1.069,2.261 0.962,4.689 0.844,7.092 m -176.798,60.132 c 0.565,3.337 -2.065,5.863 -5.284,5.283 v -5.283 z m 199.784,12.354 c -14.304,1.323 -0.792,-4.057 -5.29,-12.35 5.781,-1.279 4.069,9.307 5.29,12.35 m -176.792,-3.503 c -5.482,10.797 -17.03,-0.006 -6.177,-0.848 1.883,-0.146 4.123,1.065 6.177,0.848 m 194.466,26.488 c -8.139,1.772 0.258,-11.022 3.541,-8.819 z m -215.7,-7.061 c 2.429,12.644 -4.537,9.268 -3.211,2.87 0.247,-1.195 1.821,-2.883 3.211,-2.87 m 79.068,-63.917 c -10.166,-1.055 -17.157,-0.305 -25.038,6.302 2.317,-14.847 17.01,-21.031 25.038,-6.302 m 57.098,78.071 c 6.219,-0.122 7.356,7.663 7.041,12.365 z m -22.436,-34.355 c 10.402,1.99 16.443,-12.84 22.965,-1.969 -6.217,6.063 -19.629,14.022 -22.965,1.969 m -145.524,44.962 12.882,6.479 -6.479,6.455 -6.403,0.024 z m 160.87,12.343 -7.054,1.781 4.409,-7.021 z m -44.203,1.781 -5.283,-2.672 2.642,-4.349 z m 261.676,3.525 4.388,-3.504 2.662,5.292 z m -300.576,14.161 c -7.517,0.132 -3.198,-5.813 -3.508,-10.613 l 5.281,0.02 z m -104.308,-0.006 h -3.515 l 0.01,-7.061 c 3.51,0.946 3.966,3.766 3.505,7.061 m 206.859,1.765 -8.823,-10.574 c 7.039,-1.374 7.959,5.398 8.823,10.574 m 115.811,35.333 -2.641,-4.35 2.641,-2.641 2.642,4.349 z m -218.358,-7.022 c 0.274,3.386 0.406,7.829 -3.505,8.83 l -0.01,-8.829 z m 91.937,1.769 -4.41,8.789 -2.658,-2.651 1.982,-5.95 z m 71.172,36.963 c -8.286,0.538 -19.214,1.028 -21.657,-8.595 l 17.381,-2.425 z m -108.3,8.983 c -6.723,5.829 -7.028,-11.658 -0.864,-3.535 0.776,1.023 1.421,3.052 0.864,3.535 m 3.523,33.595 c -8.488,-0.736 -5.818,-8.249 1.781,-7.053 z m 21.249,-7.054 c 5.996,-2.171 6.012,10.708 2.641,10.557 z m 63.648,14.144 5.253,2.642 -2.642,2.632 -2.611,0.01 z m -11.385,32.633 -22.217,4.465 c 0.242,-8.045 21.529,-14.65 22.217,-4.465 m 96.228,69.911 c 1.797,1.775 -3.448,7.096 -5.283,5.283 -1.797,-1.775 3.448,-7.095 5.283,-5.283 M 166.2,-26.511 -326.866,5.504 -395.782,259.655 23.572,512.53 C 102.873,343.753 143.752,158.409 166.2,-26.511"
             style="fill:#000000;fill-opacity:1;fill-rule:nonzero;stroke:none"
             id="path109" />
        </g>
        <g
           id="g111"
           transform="translate(192.708,49.4723)">
          <path
             d="M 0,0 C -1.835,1.813 -7.08,-3.508 -5.283,-5.283 -3.448,-7.096 1.797,-1.775 0,0 M 60.112,5.304 C 56.775,5.87 54.248,3.24 54.828,0.021 h 5.284 z m -17.66,8.84 2.672,-5.283 4.35,2.641 z m -91.956,120.224 -5.253,-2.642 2.642,-2.632 2.611,-0.01 z m 65.416,44.2 c -2.269,3.447 -6.574,-5.863 -5.284,-7.051 3.636,-3.347 7.699,3.38 5.284,7.051 m 93.704,15.933 c 0.246,4.013 -1.299,9.045 -5.274,10.596 0.723,-3.228 -0.082,-12.016 5.274,-10.596 m -35.36,17.679 -2.642,7.022 -2.641,-7.022 z m 35.369,22.994 -2.641,7.042 -2.651,-4.38 z m 0,49.504 -5.283,5.283 v -7.071 z m -76.033,15.903 -2.642,5.252 -2.632,-2.642 -0.01,-2.61 z m 194.469,22.983 -0.853,8.82 c -2.982,-0.162 -3.094,-8.626 0.853,-8.82 M 100.775,327.1 c 0.461,3.295 0.005,6.115 -3.505,7.061 L 97.261,327.1 Z m 153.79,17.653 -3.489,0.006 0.009,-2.612 7.052,-4.429 z m -127.27,-1.741 -0.863,8.82 -2.651,-8.82 z m 10.608,42.411 h -3.515 v -7.051 h 3.515 z m 77.489,50.803 c 8.19,0.396 13.509,-1.102 20.96,-4.51 13.565,-6.206 79.686,-64.086 82.824,-76.287 1.847,-7.179 1.429,-10.76 -2.686,-16.855 C 301.89,316.95 180.337,294.82 170.189,276.251 L 139.791,192 199.643,46.739 C 169.679,12.754 135.651,-18.958 101.65,-49.472 l -259.059,48.537 c -2.849,1.714 1.739,9.651 2.638,11.637 55.073,121.659 125.735,241.688 184.008,362.301 45.876,18.881 94.554,38.658 142.277,52.203 11.874,3.37 32.463,10.469 43.878,11.02"
             style="fill:#000000;fill-opacity:1;fill-rule:nonzero;stroke:none"
             id="path113" />
        </g>
        <g
           id="g115"
           transform="translate(132.6012,556.8739)">
          <path
             d="m 0,0 -5.279,1.792 -0.01,-5.294 5.284,10e-4 z m 112.955,12.206 c -0.48,0.569 -6.281,2.367 -6.858,1.953 l 0.005,-3.49 6.181,-3.563 c 1.505,0.001 1.217,4.452 0.672,5.1 m 145.167,47.919 c -3.294,0.461 -6.115,0.005 -7.061,-3.505 l 7.061,-0.01 z M 86.617,81.342 H 84.89 V 68.986 h 1.727 z m -39.159,64.71 -7.622,-1.847 0.045,-17.246 22.969,0.019 c 3.689,18.482 -6.879,7.969 -12.496,11.474 -4.511,2.814 -2.563,7.366 -2.896,7.6 m -72.203,-50.087 11.602,5.84 -5.858,9.581 -5.744,0.003 z m -51.3,36.655 -3.542,-0.911 4.442,-9.683 c 3.388,0.936 -0.55,10.194 -0.9,10.594 m 275.81,7.07 -3.501,-0.005 -0.001,-5.283 5.294,0.01 z m 36.945,5.299 -12.16,-15.173 12.159,-3.082 z m -93.507,38.896 h -7.052 l 0.01,-2.611 4.37,-2.672 z m 76.024,0.021 -4.4,10.588 c -6.26,-2.906 2.094,-13.008 4.4,-10.588 m -222.79,22.963 h -3.494 l 0.008,-2.613 5.266,-4.447 z m -38.874,-3.515 c 0.566,3.337 -2.065,5.864 -5.283,5.284 v -5.284 z m 169.729,8.817 -3.512,-0.001 -1.732,-4.421 2.611,-2.628 z m -30.027,-3.523 4.689,4.42 -2.057,9.683 z m 55.702,35.349 c -9.596,-1.812 7.911,-15.202 4.37,-2.662 -0.339,1.2 -2.756,2.967 -4.37,2.662 m 71.563,12.376 h -3.515 v -7.051 h 3.515 z m -26.515,-10.583 -3.502,12.358 c -2.778,-4.234 -4.245,-11.755 3.502,-12.358 m 54.796,54.802 73.543,-267.097 -393.056,-76.172 -65.899,251.32 z"
             style="fill:#000000;fill-opacity:1;fill-rule:nonzero;stroke:none"
             id="path117" />
        </g>
        <g
           id="g119"
           transform="translate(1041.3466,595.8041)">
          <path
             d="M 0,0 -5.273,7.061 C -5.944,3.063 -4.684,-0.392 0,0 m -28.298,201.538 -7.036,-0.002 -0.005,-3.52 h 7.051 z m 3.546,28.281 -7.021,-2.642 4.349,-2.641 z m -12.395,5.307 c -7.343,1.951 -0.607,-10.156 3.564,-8.813 z m -28.045,77.911 c -1.612,1.887 2.126,10.042 -1.961,10.486 -0.201,-6.161 -1.332,-12.09 4.4,-15.861 l 2.653,5.256 c -1.309,0.16 -4.583,-0.477 -5.092,0.119 m -0.235,28.178 c 3.111,2.025 -0.793,10.26 -3.504,7.06 -1.611,-1.902 1.869,-8.124 3.504,-7.06 m -12.354,74.234 -7.062,-2.662 4.419,-6.148 z m -29.172,49.483 -2.642,-4.349 2.642,-2.642 2.641,4.35 z M 49.503,-56.581 -36.765,-30.598 c -22.29,194.029 -68.597,386.045 -148.558,564.137 l 0.496,3.854 65.51,53.064 C -30.456,385.503 26.435,166.192 49.503,-56.581"
             style="fill:#000000;fill-opacity:1;fill-rule:nonzero;stroke:none"
             id="path121" />
        </g>
        <g
           id="g123"
           transform="translate(1255.2954,868.0753)">
          <path
             d="M 0,0 5.189,2.749 2.641,8.79 Z m 125.507,14.123 h -5.284 l 0.01,-2.61 2.632,-2.643 z M 44.179,28.267 h -7.051 v -3.515 h 7.051 z m 22.984,-1.753 c 0.264,0.167 2.134,4.987 0.073,6.237 -11.288,6.848 -6.802,-10.501 -0.073,-6.237 m 90.184,53.044 -0.014,-159.135 -339.357,63.746 -5.399,33.495 z"
             style="fill:#000000;fill-opacity:1;fill-rule:nonzero;stroke:none"
             id="path125" />
        </g>
        <g
           id="g127"
           transform="translate(1214.178,1116.8151)">
          <path
             d="M 0,0 -11.708,14.682 C -14.69,8.929 -3.879,-3.621 0,0 m -11.629,55.851 1.586,-9.613 7.132,-0.544 -1.586,9.613 z m 44.535,-32.968 -3.726,-6.135 3.726,-3.726 3.726,6.135 z m -120.587,-47.3 -5.733,-9.44 5.733,-5.733 5.733,9.44 z m 29.209,-17.581 h -3.515 v -7.051 h 3.515 z m 80.12,95.565 h -3.515 v -7.051 h 3.515 z m 100.783,-38.856 -279.834,-161.302 -19.936,7.502 193.023,291.572 z"
             style="fill:#000000;fill-opacity:1;fill-rule:nonzero;stroke:none"
             id="path129" />
        </g>
        <g
           id="g131"
           transform="translate(422.5479,330.5909)">
          <path
             d="m 0,0 c -1.793,-24.891 17.852,-45.013 40.419,-51.524 0.258,-20.399 -2.017,-39.183 12.57,-55.497 4.231,-4.732 20.089,-13.626 20.969,-16.159 1.966,-5.661 -0.53,-18.705 0.471,-26.049 4.702,-34.487 39.536,-34.204 66.77,-33.116 l 5.525,-24.457 -141.169,-40.487 -72.43,165.049 21.85,66.282 z"
             style="fill:#000000;fill-opacity:1;fill-rule:nonzero;stroke:none"
             id="path133" />
        </g>
        <g
           id="g135"
           transform="translate(1290.6338,608.1599)">
          <path
             d="M 0,0 -5.253,-2.642 -2.611,-5.274 0,-5.284 Z M 5.306,26.539 C -0.664,24.341 -3.846,31.092 -7.06,23.014 L 5.303,21.235 Z M -180.865,160.637 73.519,58.4 3.615,-56.799 -195.057,139.339 Z"
             style="fill:#000000;fill-opacity:1;fill-rule:nonzero;stroke:none"
             id="path137" />
        </g>
        <g
           id="g139"
           transform="translate(457.6623,567.2513)">
          <path
             d="M 0,0 19.405,-46.337 -5.911,-73.654 c -24.618,25.57 -61.433,10.047 -90.653,1.884 -22.978,-6.418 -100.298,-30.546 -100.298,-30.546 l -37.626,12.806 -16.074,39.721 4.189,4.072 c 0,0 231.207,47.688 246.373,45.717"
             style="fill:#000000;fill-opacity:1;fill-rule:nonzero;stroke:none"
             id="path141" />
        </g>
        <g
           id="g143"
           transform="translate(556.8947,373.0163)">
          <path
             d="m 0,0 c -6.377,1.494 -4.2,-7.705 1.789,-7.052 z m -26.941,7.576 0.469,26.895 C -2.567,47.852 18.324,77.322 41.04,43.671 53.571,25.109 61.85,-3.838 43.431,-21.29 27.677,-36.217 -67.029,-75.002 -87.32,-72.319 c -14.885,1.968 -32.462,28.906 -25.126,38.791 5.377,7.246 73.446,32.127 85.505,41.104"
             style="fill:#000000;fill-opacity:1;fill-rule:nonzero;stroke:none"
             id="path145" />
        </g>
        <g
           id="g147"
           transform="translate(598.9603,328.4768)">
          <path
             d="m 0,0 c 28.272,2.864 40.228,-41.201 23.447,-58.944 -10.324,-10.917 -85.749,-38.748 -102.154,-41.047 -35.597,-4.987 -48.317,27.306 -31.449,54.426 z"
             style="fill:#000000;fill-opacity:1;fill-rule:nonzero;stroke:none"
             id="path149" />
        </g>
        <g
           id="g151"
           transform="translate(520.1693,211.7682)">
          <path
             d="m 0,0 c 24.104,3.029 78.291,35.299 99.422,33.865 20.367,-1.382 27.437,-41.16 16.64,-55.34 C 106.074,-34.593 40.354,-45.394 23.441,-43.882 -2.728,-41.544 -10.967,-22.92 0,0"
             style="fill:#000000;fill-opacity:1;fill-rule:nonzero;stroke:none"
             id="path153" />
        </g>
        <g
           id="g155"
           transform="translate(520.6476,529.5677)">
          <path
             d="M 0,0 C 17.802,1.164 48.404,-42.59 48.396,-58.413 48.393,-67.106 39.516,-75.009 33.67,-80.562 26.416,-87.453 3.419,-107.68 -5.272,-98.188 l -46.539,43.562 C -53.057,-47.346 -8.217,-0.537 0,0"
             style="fill:#000000;fill-opacity:1;fill-rule:nonzero;stroke:none"
             id="path157" />
        </g>
      </g>
    </g>
  </g>
</svg>
